<svg xmlns="http://www.w3.org/2000/svg" version="1.1" xmlns:xlink="http://www.w3.org/1999/xlink" xmlns:svgjs="http://svgjs.com/svgjs" width="512" height="512" x="0" y="0" viewBox="0 0 511.999 511.999" style="enable-background:new 0 0 512 512" xml:space="preserve" class=""><g>
<path xmlns="http://www.w3.org/2000/svg" style="" d="M508.349,307.082c3.899,4.499,4.797,10.796,2.099,16.193c-2.4,5.4-7.497,8.698-13.495,8.698h-91.168  l-88.77-45.885l-194.734-99.865c-0.899-6.299-1.199-12.597-1.199-19.193c0-90.87,88.569-166.943,195.933-166.943  S511.948,76.16,511.948,167.03c0,35.988-13.796,70.475-38.987,98.966L508.349,307.082z" fill="#1689fc" data-original="#1689fc" class=""></path>
<path xmlns="http://www.w3.org/2000/svg" style="" d="M508.349,307.082l-35.388-41.086c25.19-28.491,38.987-62.977,38.987-98.966  c0-90.87-87.57-166.943-194.933-166.943c-0.158,0-0.316,0.005-0.474,0.005v285.753l0.474,0.243l88.77,45.885h91.168  c5.998,0,11.096-3.299,13.495-8.698C513.146,317.878,512.248,311.582,508.349,307.082z" fill="#136ef1" data-original="#136ef1" class=""></path>
<path xmlns="http://www.w3.org/2000/svg" style="" d="M211.051,157.134c-115.76,0-210.927,79.474-210.927,177.238c0,39.288,15.295,77.074,42.885,107.664  L3.722,487.02c-3.899,4.499-4.797,10.796-2.4,16.193c2.7,5.4,7.797,8.698,13.796,8.698h210.927  c85.47,0,195.933-71.675,195.933-177.54C421.979,236.607,326.81,157.134,211.051,157.134z" fill="#ffcc33" data-original="#ffcc33" class=""></path>
<path xmlns="http://www.w3.org/2000/svg" style="" d="M211.051,157.134c-0.021,0-0.041,0-0.062,0v354.778h15.057c85.47,0,195.933-71.675,195.933-177.541  C421.979,236.607,326.81,157.134,211.051,157.134z" fill="#fea832" data-original="#fea832"></path>
<g xmlns="http://www.w3.org/2000/svg">
	<path style="" d="M121.082,361.964c-16.532,0-29.99-13.457-29.99-29.99s13.457-29.99,29.99-29.99   s29.99,13.457,29.99,29.99S137.614,361.964,121.082,361.964z" fill="#0059aa" data-original="#0059aa"></path>
	<path style="" d="M211.051,301.985c-16.494,0-29.99,13.495-29.99,29.99s13.495,29.99,29.99,29.99   s29.99-13.495,29.99-29.99S227.544,301.985,211.051,301.985z" fill="#0059aa" data-original="#0059aa"></path>
</g>
<g xmlns="http://www.w3.org/2000/svg">
	<path style="" d="M302.02,361.964c-16.532,0-29.99-13.457-29.99-29.99s13.457-29.99,29.99-29.99   s29.99,13.457,29.99,29.99S318.552,361.964,302.02,361.964z M302.02,331.945c0,0.015,0,0.029,0,0.029" fill="#08469c" data-original="#08469c"></path>
	<path style="" d="M241.041,331.975c0,16.494-13.495,29.99-29.99,29.99v-59.979   C227.544,301.985,241.041,315.48,241.041,331.975z" fill="#08469c" data-original="#08469c"></path>
</g>
<g xmlns="http://www.w3.org/2000/svg">
</g>
<g xmlns="http://www.w3.org/2000/svg">
</g>
<g xmlns="http://www.w3.org/2000/svg">
</g>
<g xmlns="http://www.w3.org/2000/svg">
</g>
<g xmlns="http://www.w3.org/2000/svg">
</g>
<g xmlns="http://www.w3.org/2000/svg">
</g>
<g xmlns="http://www.w3.org/2000/svg">
</g>
<g xmlns="http://www.w3.org/2000/svg">
</g>
<g xmlns="http://www.w3.org/2000/svg">
</g>
<g xmlns="http://www.w3.org/2000/svg">
</g>
<g xmlns="http://www.w3.org/2000/svg">
</g>
<g xmlns="http://www.w3.org/2000/svg">
</g>
<g xmlns="http://www.w3.org/2000/svg">
</g>
<g xmlns="http://www.w3.org/2000/svg">
</g>
<g xmlns="http://www.w3.org/2000/svg">
</g>
</g></svg>